<svg width="32" height="32" viewBox="0 0 32 32" fill="none" xmlns="http://www.w3.org/2000/svg">
<path d="M22.5303 21.4697C22.8232 21.7627 22.8232 22.2373 22.5303 22.5303C22.3838 22.6768 22.1919 22.75 22 22.75C21.8081 22.75 21.6162 22.6768 21.4697 22.5303L16 17.0605L10.5303 22.5303C10.3838 22.6768 10.1919 22.75 10 22.75C9.80811 22.75 9.61621 22.6768 9.46973 22.5303C9.17676 22.2373 9.17676 21.7627 9.46973 21.4697L14.9395 16L9.46973 10.5303C9.17676 10.2373 9.17676 9.7627 9.46973 9.46973C9.7627 9.17676 10.2373 9.17676 10.5303 9.46973L16 14.9395L21.4697 9.46973C21.7627 9.17676 22.2373 9.17676 22.5303 9.46973C22.8232 9.7627 22.8232 10.2373 22.5303 10.5303L17.0605 16L22.5303 21.4697Z" fill="#171A20"/>
</svg>
