<svg width="48" height="48" fill="none" xmlns="http://www.w3.org/2000/svg"><path d="M40.53 24.467c-1.9-.474-4.054-2.011-6.251-3.947-11.079-9.77-16.988-5.196-22.034-1.857-1.79 1.185-3.336 2.208-4.84 2.464-.364.134-.766.238-1.156.339-1.006.26-2.047.529-2.59 1.358-1 1.53-.97 3.588-.93 6.195.01.693.021 1.428.013 2.204-.003.3.112.582.324.796.212.214.493.331.793.331h3.873a4.502 4.502 0 003.975 2.396c2.481 0 4.5-2.018 4.5-4.499s-2.019-4.5-4.5-4.5a4.505 4.505 0 00-4.5 4.5c0 .496.084.971.233 1.418H3.859a.427.427 0 01-.306-.129.426.426 0 01-.125-.306 86.668 86.668 0 00-.014-2.221c-.037-2.49-.067-4.456.818-5.81.398-.607 1.268-.831 2.189-1.07.4-.103.814-.21 1.146-.338.009-.001.016-.005.024-.007 1.582-.266 3.181-1.324 5.032-2.549 5.132-3.396 10.52-7.621 21.202 1.8 2.323 2.046 4.66 3.63 6.54 4.098 2.02.753 4.015 1.25 4.234 5.84a.658.658 0 01-.185.486.66.66 0 01-.479.205h-3.714c.149-.446.233-.921.233-1.417 0-2.481-2.019-4.5-4.5-4.5a4.504 4.504 0 00-4.5 4.5c0 .496.084.971.233 1.418h-13.48a.343.343 0 100 .685H31.98a4.502 4.502 0 003.974 2.396 4.502 4.502 0 003.975-2.396h4.006c.37 0 .715-.147.973-.415a1.34 1.34 0 00.377-.988c-.24-5.105-2.674-5.712-4.754-6.48zm-28.823 1.966a3.818 3.818 0 013.814 3.814 3.818 3.818 0 01-3.814 3.814 3.815 3.815 0 01-3.44-2.178l-.01-.022a3.784 3.784 0 01-.364-1.614 3.818 3.818 0 013.814-3.814zm24.247 7.628a3.815 3.815 0 01-3.442-2.183l-.005-.01a3.783 3.783 0 01-.366-1.621 3.818 3.818 0 013.813-3.814 3.818 3.818 0 013.814 3.814 3.818 3.818 0 01-3.814 3.814z" fill="#171A20"/><path fill-rule="evenodd" clip-rule="evenodd" d="M24.021 23.391h2.83c.116 0 .188.112.127.199l-3.723 5.347c-.078.113-.276.064-.276-.068v-3.26h-2.83c-.116 0-.188-.112-.127-.199l3.723-5.347c.078-.113.276-.064.276.068v3.26zm-.149.261c-.082 0-.149-.058-.149-.13v-2.927l-3.309 4.753h2.714c.082 0 .149.058.149.13v2.927l3.309-4.753h-2.714z" fill="#171A20" stroke="#171A20" stroke-width=".4" stroke-linejoin="round"/></svg>