<svg width="28" height="27" fill="none" xmlns="http://www.w3.org/2000/svg"><path d="M1.48 17.171l.218-.374c1.518 5.592 6.528 9.47 12.302 9.47 5.887 0 10.982-4.03 12.39-9.798a.32.32 0 10-.621-.154c-1.338 5.478-6.177 9.305-11.769 9.305-5.499 0-10.267-3.701-11.695-9.034l.43.255c.153.09.349.038.438-.116a.325.325 0 00-.114-.442l-1.067-.632a.318.318 0 00-.438.116l-.625 1.077a.326.326 0 00.114.443.317.317 0 00.438-.116zM26.934 9.361a.319.319 0 00-.427.151l-.207.435C24.78 4.358 19.774.485 14 .485c-5.893 0-10.99 4.034-12.392 9.81a.323.323 0 00.234.39.321.321 0 00.387-.236C3.562 4.963 8.402 1.13 14 1.13c5.493 0 10.254 3.69 11.69 9.012l-.407-.197a.319.319 0 00-.427.15.324.324 0 00.15.432l1.114.541a.316.316 0 00.245.014.32.32 0 00.182-.165l.537-1.125a.324.324 0 00-.15-.432z" fill="#171A20"/><path d="M19.907 11.708c-.41-.63-.936-1.485-1.466-2.347l-.002-.003c-.456-.74-.913-1.484-1.297-2.084a.322.322 0 00-.45-.094.327.327 0 00-.094.449c.38.593.834 1.332 1.292 2.075l.002.004c.398.647.798 1.298 1.15 1.852H6.325a.326.326 0 000 .653h13.31c.12 0 .229-.066.286-.171a.328.328 0 00-.015-.334zM8.515 17.764c.437.683.873 1.366 1.25 1.96a.325.325 0 00.549-.346c-.378-.597-.816-1.282-1.253-1.966-.382-.598-.765-1.196-1.107-1.735h12.72a.326.326 0 000-.652H7.364a.324.324 0 00-.284.169.328.328 0 00.01.332c.414.655.92 1.447 1.425 2.238z" fill="#171A20"/></svg>